<svg width="64" height="79" viewBox="0 0 64 79" fill="none" xmlns="http://www.w3.org/2000/svg">
<path opacity="0.4" d="M35.3333 17.9165L31.75 21.4998L35.3333 25.0832" stroke="#1C274C" stroke-width="1.5" stroke-miterlimit="10" stroke-linecap="round" stroke-linejoin="round"/>
<path opacity="0.4" d="M49.667 17.9165L53.2503 21.4998L49.667 25.0832" stroke="#1C274C" stroke-width="1.5" stroke-miterlimit="10" stroke-linecap="round" stroke-linejoin="round"/>
<path d="M42.4997 39.4168C52.3948 39.4168 60.4163 31.3953 60.4163 21.5002C60.4163 11.6051 52.3948 3.5835 42.4997 3.5835C32.6046 3.5835 24.583 11.6051 24.583 21.5002C24.583 31.3953 32.6046 39.4168 42.4997 39.4168Z" stroke="#1C274C" stroke-width="1.5" stroke-miterlimit="10" stroke-linecap="round" stroke-linejoin="round"/>
<path opacity="0.4" d="M44.2913 17.3252L40.708 25.6744" stroke="#1C274C" stroke-width="1.5" stroke-miterlimit="10" stroke-linecap="round" stroke-linejoin="round"/>
<circle cx="25" cy="72" r="4" fill="#A4A9B7"/>
<path fill-rule="evenodd" clip-rule="evenodd" d="M20.8471 16.3335H16.3743C10.2964 16.3335 6.19711 17.0751 3.67735 19.5948C1.1576 22.1146 0.416016 26.2139 0.416016 32.2918V62.7085C0.416016 68.7865 1.1576 72.8857 3.67735 75.4055C6.19711 77.9252 10.2964 78.6668 16.3743 78.6668H34.6243C40.7023 78.6668 44.8016 77.9252 47.3213 75.4055C49.8411 72.8857 50.5827 68.7865 50.5827 62.7085V41.832C50.0901 41.989 49.5899 42.1311 49.0827 42.2578V62.7085C49.0827 68.7972 48.3034 72.3021 46.2607 74.3448C44.2179 76.3876 40.713 77.1668 34.6243 77.1668H16.3743C10.2857 77.1668 6.78076 76.3876 4.73801 74.3448C2.69527 72.3021 1.91602 68.7972 1.91602 62.7085V32.2918C1.91602 26.2031 2.69527 22.6982 4.73801 20.6555C6.78076 18.6127 10.2857 17.8335 16.3743 17.8335H20.4527C20.5644 17.3267 20.6961 16.8264 20.8471 16.3335Z" fill="#1C274C"/>
</svg>
