<svg width="64" height="73" viewBox="0 0 64 73" fill="none" xmlns="http://www.w3.org/2000/svg">
<path d="M56.8337 41.7157V44.0148C56.8337 53.2115 54.5345 55.4848 45.3637 55.4848H16.637C7.46616 55.4848 5.16699 53.1857 5.16699 44.0148V27.6365C5.16699 18.4657 7.46616 16.1665 16.637 16.1665H20.667" stroke="#1C274C" stroke-width="1.5" stroke-linecap="round" stroke-linejoin="round"/>
<path opacity="0.4" d="M31 55.4849V67.8332" stroke="#1C274C" stroke-width="1.5" stroke-linecap="round" stroke-linejoin="round"/>
<path opacity="0.4" d="M5.16699 44.5835H56.8337" stroke="#1C274C" stroke-width="1.5" stroke-linecap="round" stroke-linejoin="round"/>
<path d="M19.375 67.8335H42.625" stroke="#1C274C" stroke-width="1.5" stroke-linecap="round" stroke-linejoin="round"/>
<path opacity="0.4" d="M35.3333 17.9165L31.75 21.4998L35.3333 25.0832" stroke="#1C274C" stroke-width="1.5" stroke-miterlimit="10" stroke-linecap="round" stroke-linejoin="round"/>
<path opacity="0.4" d="M49.667 17.9165L53.2503 21.4998L49.667 25.0832" stroke="#1C274C" stroke-width="1.5" stroke-miterlimit="10" stroke-linecap="round" stroke-linejoin="round"/>
<path d="M42.4997 39.4168C52.3948 39.4168 60.4163 31.3953 60.4163 21.5002C60.4163 11.6051 52.3948 3.5835 42.4997 3.5835C32.6046 3.5835 24.583 11.6051 24.583 21.5002C24.583 31.3953 32.6046 39.4168 42.4997 39.4168Z" stroke="#1C274C" stroke-width="1.5" stroke-miterlimit="10" stroke-linecap="round" stroke-linejoin="round"/>
<path opacity="0.4" d="M44.2913 17.3252L40.708 25.6744" stroke="#1C274C" stroke-width="1.5" stroke-miterlimit="10" stroke-linecap="round" stroke-linejoin="round"/>
</svg>
